<svg width="333" height="221" viewBox="0 0 333 221" fill="none" xmlns="http://www.w3.org/2000/svg">
<path d="M307.697 163.224C308.596 162.502 309.301 161.91 309.811 161.45C310.321 160.982 310.749 160.497 311.097 159.994C311.451 159.484 311.628 158.985 311.628 158.496C311.628 158.036 311.514 157.675 311.288 157.412C311.068 157.143 310.71 157.009 310.215 157.009C309.733 157.009 309.358 157.161 309.088 157.466C308.826 157.763 308.685 158.163 308.663 158.666H307.728C307.757 157.873 307.998 157.26 308.451 156.828C308.904 156.396 309.489 156.18 310.204 156.18C310.934 156.18 311.511 156.382 311.936 156.786C312.368 157.189 312.584 157.745 312.584 158.454C312.584 159.042 312.407 159.615 312.053 160.175C311.706 160.727 311.309 161.216 310.863 161.641C310.417 162.059 309.846 162.548 309.152 163.107H312.807V163.915H307.697V163.224ZM313.925 160.079C313.925 158.861 314.123 157.912 314.52 157.232C314.917 156.545 315.611 156.201 316.602 156.201C317.587 156.201 318.278 156.545 318.674 157.232C319.071 157.912 319.269 158.861 319.269 160.079C319.269 161.319 319.071 162.282 318.674 162.969C318.278 163.656 317.587 164 316.602 164C315.611 164 314.917 163.656 314.52 162.969C314.123 162.282 313.925 161.319 313.925 160.079ZM318.313 160.079C318.313 159.463 318.27 158.942 318.185 158.517C318.108 158.085 317.941 157.738 317.686 157.476C317.438 157.214 317.077 157.083 316.602 157.083C316.121 157.083 315.752 157.214 315.497 157.476C315.249 157.738 315.083 158.085 314.998 158.517C314.92 158.942 314.881 159.463 314.881 160.079C314.881 160.717 314.92 161.252 314.998 161.684C315.083 162.116 315.249 162.463 315.497 162.725C315.752 162.987 316.121 163.118 316.602 163.118C317.077 163.118 317.438 162.987 317.686 162.725C317.941 162.463 318.108 162.116 318.185 161.684C318.27 161.252 318.313 160.717 318.313 160.079ZM320.384 158.05C320.384 157.568 320.529 157.186 320.82 156.902C321.11 156.612 321.482 156.467 321.935 156.467C322.389 156.467 322.761 156.612 323.051 156.902C323.341 157.186 323.487 157.568 323.487 158.05C323.487 158.539 323.341 158.928 323.051 159.219C322.761 159.502 322.389 159.644 321.935 159.644C321.482 159.644 321.11 159.502 320.82 159.219C320.529 158.928 320.384 158.539 320.384 158.05ZM326.589 156.584L322.286 164H321.33L325.633 156.584H326.589ZM321.935 157.062C321.695 157.062 321.503 157.147 321.362 157.317C321.227 157.48 321.16 157.724 321.16 158.05C321.16 158.376 321.227 158.624 321.362 158.794C321.503 158.964 321.695 159.049 321.935 159.049C322.176 159.049 322.367 158.964 322.509 158.794C322.651 158.617 322.722 158.369 322.722 158.05C322.722 157.724 322.651 157.48 322.509 157.317C322.367 157.147 322.176 157.062 321.935 157.062ZM324.453 162.534C324.453 162.045 324.599 161.659 324.889 161.376C325.18 161.085 325.551 160.94 326.005 160.94C326.458 160.94 326.826 161.085 327.11 161.376C327.4 161.659 327.545 162.045 327.545 162.534C327.545 163.015 327.4 163.401 327.11 163.692C326.826 163.982 326.458 164.128 326.005 164.128C325.551 164.128 325.18 163.986 324.889 163.702C324.599 163.412 324.453 163.022 324.453 162.534ZM325.994 161.546C325.753 161.546 325.562 161.631 325.42 161.801C325.279 161.964 325.208 162.208 325.208 162.534C325.208 162.852 325.279 163.097 325.42 163.267C325.562 163.43 325.753 163.511 325.994 163.511C326.235 163.511 326.426 163.43 326.568 163.267C326.71 163.097 326.78 162.852 326.78 162.534C326.78 162.208 326.71 161.964 326.568 161.801C326.426 161.631 326.235 161.546 325.994 161.546Z" fill="#7B6F72"/>
<path d="M307.009 135.289V134.556L310.738 129.392H311.896V134.45H312.959V135.289H311.896V137H310.94V135.289H307.009ZM310.983 130.402L308.125 134.45H310.983V130.402ZM313.925 133.079C313.925 131.861 314.123 130.912 314.52 130.232C314.917 129.545 315.611 129.201 316.602 129.201C317.587 129.201 318.278 129.545 318.674 130.232C319.071 130.912 319.269 131.861 319.269 133.079C319.269 134.319 319.071 135.282 318.674 135.969C318.278 136.656 317.587 137 316.602 137C315.611 137 314.917 136.656 314.52 135.969C314.123 135.282 313.925 134.319 313.925 133.079ZM318.313 133.079C318.313 132.463 318.27 131.942 318.185 131.517C318.108 131.085 317.941 130.738 317.686 130.476C317.438 130.214 317.077 130.083 316.602 130.083C316.121 130.083 315.752 130.214 315.497 130.476C315.249 130.738 315.083 131.085 314.998 131.517C314.92 131.942 314.881 132.463 314.881 133.079C314.881 133.717 314.92 134.252 314.998 134.684C315.083 135.116 315.249 135.463 315.497 135.725C315.752 135.987 316.121 136.118 316.602 136.118C317.077 136.118 317.438 135.987 317.686 135.725C317.941 135.463 318.108 135.116 318.185 134.684C318.27 134.252 318.313 133.717 318.313 133.079ZM320.384 131.05C320.384 130.568 320.529 130.186 320.82 129.902C321.11 129.612 321.482 129.467 321.935 129.467C322.389 129.467 322.761 129.612 323.051 129.902C323.341 130.186 323.487 130.568 323.487 131.05C323.487 131.539 323.341 131.928 323.051 132.219C322.761 132.502 322.389 132.644 321.935 132.644C321.482 132.644 321.11 132.502 320.82 132.219C320.529 131.928 320.384 131.539 320.384 131.05ZM326.589 129.584L322.286 137H321.33L325.633 129.584H326.589ZM321.935 130.062C321.695 130.062 321.503 130.147 321.362 130.317C321.227 130.48 321.16 130.724 321.16 131.05C321.16 131.376 321.227 131.624 321.362 131.794C321.503 131.964 321.695 132.049 321.935 132.049C322.176 132.049 322.367 131.964 322.509 131.794C322.651 131.617 322.722 131.369 322.722 131.05C322.722 130.724 322.651 130.48 322.509 130.317C322.367 130.147 322.176 130.062 321.935 130.062ZM324.453 135.534C324.453 135.045 324.599 134.659 324.889 134.376C325.18 134.085 325.551 133.94 326.005 133.94C326.458 133.94 326.826 134.085 327.11 134.376C327.4 134.659 327.545 135.045 327.545 135.534C327.545 136.015 327.4 136.401 327.11 136.692C326.826 136.982 326.458 137.128 326.005 137.128C325.551 137.128 325.18 136.986 324.889 136.702C324.599 136.412 324.453 136.022 324.453 135.534ZM325.994 134.546C325.753 134.546 325.562 134.631 325.42 134.801C325.279 134.964 325.208 135.208 325.208 135.534C325.208 135.852 325.279 136.097 325.42 136.267C325.562 136.43 325.753 136.511 325.994 136.511C326.235 136.511 326.426 136.43 326.568 136.267C326.71 136.097 326.78 135.852 326.78 135.534C326.78 135.208 326.71 134.964 326.568 134.801C326.426 134.631 326.235 134.546 325.994 134.546Z" fill="#7B6F72"/>
<path d="M309.372 103.337C309.316 103.075 309.217 102.88 309.075 102.753C308.933 102.618 308.731 102.551 308.469 102.551C308.066 102.551 307.775 102.728 307.598 103.082C307.421 103.429 307.329 103.981 307.322 104.739C307.478 104.491 307.701 104.297 307.991 104.155C308.289 104.013 308.615 103.942 308.969 103.942C309.663 103.942 310.219 104.162 310.637 104.601C311.062 105.04 311.274 105.653 311.274 106.439C311.274 106.956 311.168 107.41 310.956 107.799C310.75 108.189 310.446 108.494 310.042 108.713C309.645 108.933 309.174 109.043 308.629 109.043C307.538 109.043 306.78 108.702 306.355 108.022C305.93 107.335 305.717 106.351 305.717 105.069C305.717 103.723 305.941 102.724 306.387 102.072C306.84 101.414 307.563 101.084 308.554 101.084C309.086 101.084 309.532 101.191 309.893 101.403C310.261 101.609 310.538 101.881 310.722 102.221C310.913 102.561 311.026 102.933 311.062 103.337H309.372ZM308.533 105.377C308.229 105.377 307.974 105.469 307.768 105.653C307.57 105.83 307.471 106.085 307.471 106.418C307.471 106.758 307.563 107.024 307.747 107.215C307.938 107.406 308.207 107.502 308.554 107.502C308.866 107.502 309.11 107.41 309.287 107.226C309.472 107.034 309.564 106.776 309.564 106.45C309.564 106.117 309.475 105.855 309.298 105.664C309.121 105.472 308.866 105.377 308.533 105.377ZM312.302 105.016C312.302 103.797 312.536 102.837 313.003 102.136C313.478 101.435 314.239 101.084 315.288 101.084C316.336 101.084 317.094 101.435 317.561 102.136C318.036 102.837 318.273 103.797 318.273 105.016C318.273 106.248 318.036 107.215 317.561 107.916C317.094 108.617 316.336 108.968 315.288 108.968C314.239 108.968 313.478 108.617 313.003 107.916C312.536 107.215 312.302 106.248 312.302 105.016ZM316.488 105.016C316.488 104.3 316.41 103.751 316.254 103.369C316.099 102.979 315.776 102.784 315.288 102.784C314.799 102.784 314.477 102.979 314.321 103.369C314.165 103.751 314.087 104.3 314.087 105.016C314.087 105.497 314.115 105.897 314.172 106.216C314.229 106.528 314.342 106.783 314.512 106.981C314.689 107.172 314.948 107.268 315.288 107.268C315.628 107.268 315.883 107.172 316.053 106.981C316.23 106.783 316.347 106.528 316.403 106.216C316.46 105.897 316.488 105.497 316.488 105.016ZM319.084 103.199C319.084 102.625 319.247 102.182 319.573 101.871C319.906 101.559 320.335 101.403 320.859 101.403C321.383 101.403 321.808 101.559 322.134 101.871C322.46 102.182 322.623 102.625 322.623 103.199C322.623 103.772 322.46 104.215 322.134 104.527C321.808 104.839 321.383 104.994 320.859 104.994C320.335 104.994 319.906 104.839 319.573 104.527C319.247 104.215 319.084 103.772 319.084 103.199ZM326.299 101.52L322.208 109H320.455L324.546 101.52H326.299ZM320.848 102.466C320.508 102.466 320.338 102.71 320.338 103.199C320.338 103.68 320.508 103.921 320.848 103.921C321.011 103.921 321.139 103.861 321.231 103.741C321.323 103.62 321.369 103.44 321.369 103.199C321.369 102.71 321.195 102.466 320.848 102.466ZM324.142 107.321C324.142 106.747 324.305 106.305 324.631 105.993C324.956 105.681 325.381 105.526 325.906 105.526C326.43 105.526 326.855 105.681 327.181 105.993C327.506 106.305 327.669 106.747 327.669 107.321C327.669 107.895 327.506 108.338 327.181 108.649C326.855 108.961 326.43 109.117 325.906 109.117C325.381 109.117 324.956 108.961 324.631 108.649C324.305 108.338 324.142 107.895 324.142 107.321ZM325.895 106.588C325.732 106.588 325.605 106.648 325.513 106.769C325.428 106.889 325.385 107.073 325.385 107.321C325.385 107.803 325.555 108.044 325.895 108.044C326.058 108.044 326.185 107.984 326.278 107.863C326.37 107.743 326.416 107.562 326.416 107.321C326.416 107.08 326.37 106.9 326.278 106.779C326.185 106.652 326.058 106.588 325.895 106.588Z" fill="url(#paint0_linear_430_433)"/>
<path d="M308.624 78.005C308.228 77.8492 307.923 77.6225 307.711 77.325C307.498 77.0275 307.392 76.6662 307.392 76.2412C307.392 75.8587 307.488 75.5152 307.679 75.2106C307.87 74.899 308.153 74.6546 308.529 74.4775C308.911 74.2933 309.372 74.2012 309.91 74.2012C310.448 74.2012 310.905 74.2933 311.281 74.4775C311.663 74.6546 311.95 74.899 312.141 75.2106C312.34 75.5152 312.439 75.8587 312.439 76.2412C312.439 76.6521 312.329 77.0133 312.109 77.325C311.89 77.6296 311.589 77.8562 311.206 78.005C311.646 78.1396 311.993 78.3769 312.248 78.7169C312.51 79.0498 312.641 79.4535 312.641 79.9281C312.641 80.3885 312.527 80.7923 312.301 81.1394C312.074 81.4794 311.752 81.745 311.334 81.9362C310.923 82.1204 310.448 82.2125 309.91 82.2125C309.372 82.2125 308.897 82.1204 308.486 81.9362C308.083 81.745 307.767 81.4794 307.541 81.1394C307.314 80.7923 307.201 80.3885 307.201 79.9281C307.201 79.4535 307.328 79.0462 307.583 78.7062C307.838 78.3662 308.185 78.1325 308.624 78.005ZM311.504 76.3581C311.504 75.926 311.362 75.5931 311.079 75.3594C310.796 75.1256 310.406 75.0087 309.91 75.0087C309.421 75.0087 309.035 75.1256 308.752 75.3594C308.469 75.5931 308.327 75.9296 308.327 76.3687C308.327 76.7654 308.472 77.0842 308.763 77.325C309.06 77.5658 309.443 77.6862 309.91 77.6862C310.385 77.6862 310.767 77.5658 311.058 77.325C311.355 77.0771 311.504 76.7548 311.504 76.3581ZM309.91 78.43C309.386 78.43 308.957 78.554 308.624 78.8019C308.292 79.0427 308.125 79.4075 308.125 79.8962C308.125 80.3496 308.284 80.7144 308.603 80.9906C308.929 81.2669 309.365 81.405 309.91 81.405C310.456 81.405 310.888 81.2669 311.206 80.9906C311.525 80.7144 311.684 80.3496 311.684 79.8962C311.684 79.4217 311.522 79.0604 311.196 78.8125C310.87 78.5575 310.441 78.43 309.91 78.43ZM313.925 78.0794C313.925 76.861 314.123 75.9119 314.52 75.2319C314.917 74.5448 315.611 74.2012 316.602 74.2012C317.587 74.2012 318.278 74.5448 318.674 75.2319C319.071 75.9119 319.269 76.861 319.269 78.0794C319.269 79.319 319.071 80.2823 318.674 80.9694C318.278 81.6565 317.587 82 316.602 82C315.611 82 314.917 81.6565 314.52 80.9694C314.123 80.2823 313.925 79.319 313.925 78.0794ZM318.313 78.0794C318.313 77.4631 318.27 76.9425 318.185 76.5175C318.108 76.0854 317.941 75.7383 317.686 75.4762C317.438 75.2142 317.077 75.0831 316.602 75.0831C316.121 75.0831 315.752 75.2142 315.497 75.4762C315.249 75.7383 315.083 76.0854 314.998 76.5175C314.92 76.9425 314.881 77.4631 314.881 78.0794C314.881 78.7169 314.92 79.2517 314.998 79.6837C315.083 80.1158 315.249 80.4629 315.497 80.725C315.752 80.9871 316.121 81.1181 316.602 81.1181C317.077 81.1181 317.438 80.9871 317.686 80.725C317.941 80.4629 318.108 80.1158 318.185 79.6837C318.27 79.2517 318.313 78.7169 318.313 78.0794ZM320.384 76.05C320.384 75.5683 320.529 75.1858 320.82 74.9025C321.11 74.6121 321.482 74.4669 321.935 74.4669C322.389 74.4669 322.761 74.6121 323.051 74.9025C323.341 75.1858 323.487 75.5683 323.487 76.05C323.487 76.5387 323.341 76.9283 323.051 77.2187C322.761 77.5021 322.389 77.6437 321.935 77.6437C321.482 77.6437 321.11 77.5021 320.82 77.2187C320.529 76.9283 320.384 76.5387 320.384 76.05ZM326.589 74.5837L322.286 82H321.33L325.633 74.5837H326.589ZM321.935 75.0619C321.695 75.0619 321.503 75.1469 321.362 75.3169C321.227 75.4798 321.16 75.7242 321.16 76.05C321.16 76.3758 321.227 76.6237 321.362 76.7937C321.503 76.9637 321.695 77.0487 321.935 77.0487C322.176 77.0487 322.367 76.9637 322.509 76.7937C322.651 76.6167 322.722 76.3687 322.722 76.05C322.722 75.7242 322.651 75.4798 322.509 75.3169C322.367 75.1469 322.176 75.0619 321.935 75.0619ZM324.453 80.5337C324.453 80.045 324.599 79.659 324.889 79.3756C325.18 79.0852 325.551 78.94 326.005 78.94C326.458 78.94 326.826 79.0852 327.11 79.3756C327.4 79.659 327.545 80.045 327.545 80.5337C327.545 81.0154 327.4 81.4015 327.11 81.6919C326.826 81.9823 326.458 82.1275 326.005 82.1275C325.551 82.1275 325.18 81.9858 324.889 81.7025C324.599 81.4121 324.453 81.0225 324.453 80.5337ZM325.994 79.5456C325.753 79.5456 325.562 79.6306 325.42 79.8006C325.279 79.9635 325.208 80.2079 325.208 80.5337C325.208 80.8525 325.279 81.0969 325.42 81.2669C325.562 81.4298 325.753 81.5112 325.994 81.5112C326.235 81.5112 326.426 81.4298 326.568 81.2669C326.71 81.0969 326.78 80.8525 326.78 80.5337C326.78 80.2079 326.71 79.9635 326.568 79.8006C326.426 79.6306 326.235 79.5456 325.994 79.5456Z" fill="#7B6F72"/>
<path d="M308.595 47.2V46.3181H310.592V54H309.615V47.2H308.595ZM312.253 50.0794C312.253 48.861 312.451 47.9119 312.848 47.2319C313.245 46.5448 313.939 46.2012 314.931 46.2012C315.915 46.2012 316.606 46.5448 317.002 47.2319C317.399 47.9119 317.597 48.861 317.597 50.0794C317.597 51.319 317.399 52.2823 317.002 52.9694C316.606 53.6565 315.915 54 314.931 54C313.939 54 313.245 53.6565 312.848 52.9694C312.451 52.2823 312.253 51.319 312.253 50.0794ZM316.641 50.0794C316.641 49.4631 316.599 48.9425 316.514 48.5175C316.436 48.0854 316.269 47.7383 316.014 47.4762C315.766 47.2142 315.405 47.0831 314.931 47.0831C314.449 47.0831 314.081 47.2142 313.826 47.4762C313.578 47.7383 313.411 48.0854 313.326 48.5175C313.248 48.9425 313.209 49.4631 313.209 50.0794C313.209 50.7169 313.248 51.2517 313.326 51.6837C313.411 52.1158 313.578 52.4629 313.826 52.725C314.081 52.9871 314.449 53.1181 314.931 53.1181C315.405 53.1181 315.766 52.9871 316.014 52.725C316.269 52.4629 316.436 52.1158 316.514 51.6837C316.599 51.2517 316.641 50.7169 316.641 50.0794ZM318.925 50.0794C318.925 48.861 319.123 47.9119 319.52 47.2319C319.917 46.5448 320.611 46.2012 321.602 46.2012C322.587 46.2012 323.278 46.5448 323.674 47.2319C324.071 47.9119 324.269 48.861 324.269 50.0794C324.269 51.319 324.071 52.2823 323.674 52.9694C323.278 53.6565 322.587 54 321.602 54C320.611 54 319.917 53.6565 319.52 52.9694C319.123 52.2823 318.925 51.319 318.925 50.0794ZM323.313 50.0794C323.313 49.4631 323.27 48.9425 323.185 48.5175C323.108 48.0854 322.941 47.7383 322.686 47.4762C322.438 47.2142 322.077 47.0831 321.602 47.0831C321.121 47.0831 320.752 47.2142 320.497 47.4762C320.249 47.7383 320.083 48.0854 319.998 48.5175C319.92 48.9425 319.881 49.4631 319.881 50.0794C319.881 50.7169 319.92 51.2517 319.998 51.6837C320.083 52.1158 320.249 52.4629 320.497 52.725C320.752 52.9871 321.121 53.1181 321.602 53.1181C322.077 53.1181 322.438 52.9871 322.686 52.725C322.941 52.4629 323.108 52.1158 323.185 51.6837C323.27 51.2517 323.313 50.7169 323.313 50.0794ZM325.384 48.05C325.384 47.5683 325.529 47.1858 325.82 46.9025C326.11 46.6121 326.482 46.4669 326.935 46.4669C327.389 46.4669 327.761 46.6121 328.051 46.9025C328.341 47.1858 328.487 47.5683 328.487 48.05C328.487 48.5387 328.341 48.9283 328.051 49.2187C327.761 49.5021 327.389 49.6437 326.935 49.6437C326.482 49.6437 326.11 49.5021 325.82 49.2187C325.529 48.9283 325.384 48.5387 325.384 48.05ZM331.589 46.5837L327.286 54H326.33L330.633 46.5837H331.589ZM326.935 47.0619C326.695 47.0619 326.503 47.1469 326.362 47.3169C326.227 47.4798 326.16 47.7242 326.16 48.05C326.16 48.3758 326.227 48.6237 326.362 48.7937C326.503 48.9637 326.695 49.0487 326.935 49.0487C327.176 49.0487 327.367 48.9637 327.509 48.7937C327.651 48.6167 327.722 48.3687 327.722 48.05C327.722 47.7242 327.651 47.4798 327.509 47.3169C327.367 47.1469 327.176 47.0619 326.935 47.0619ZM329.453 52.5337C329.453 52.045 329.599 51.659 329.889 51.3756C330.18 51.0852 330.551 50.94 331.005 50.94C331.458 50.94 331.826 51.0852 332.11 51.3756C332.4 51.659 332.545 52.045 332.545 52.5337C332.545 53.0154 332.4 53.4015 332.11 53.6919C331.826 53.9823 331.458 54.1275 331.005 54.1275C330.551 54.1275 330.18 53.9858 329.889 53.7025C329.599 53.4121 329.453 53.0225 329.453 52.5337ZM330.994 51.5456C330.753 51.5456 330.562 51.6306 330.42 51.8006C330.279 51.9635 330.208 52.2079 330.208 52.5337C330.208 52.8525 330.279 53.0969 330.42 53.2669C330.562 53.4298 330.753 53.5112 330.994 53.5112C331.235 53.5112 331.426 53.4298 331.568 53.2669C331.71 53.0969 331.78 52.8525 331.78 52.5337C331.78 52.2079 331.71 51.9635 331.568 51.8006C331.426 51.6306 331.235 51.5456 330.994 51.5456Z" fill="#7B6F72"/>
<path d="M307.925 188.079C307.925 186.861 308.123 185.912 308.52 185.232C308.917 184.545 309.611 184.201 310.602 184.201C311.587 184.201 312.278 184.545 312.674 185.232C313.071 185.912 313.269 186.861 313.269 188.079C313.269 189.319 313.071 190.282 312.674 190.969C312.278 191.656 311.587 192 310.602 192C309.611 192 308.917 191.656 308.52 190.969C308.123 190.282 307.925 189.319 307.925 188.079ZM312.313 188.079C312.313 187.463 312.27 186.942 312.185 186.517C312.108 186.085 311.941 185.738 311.686 185.476C311.438 185.214 311.077 185.083 310.602 185.083C310.121 185.083 309.752 185.214 309.497 185.476C309.249 185.738 309.083 186.085 308.998 186.517C308.92 186.942 308.881 187.463 308.881 188.079C308.881 188.717 308.92 189.252 308.998 189.684C309.083 190.116 309.249 190.463 309.497 190.725C309.752 190.987 310.121 191.118 310.602 191.118C311.077 191.118 311.438 190.987 311.686 190.725C311.941 190.463 312.108 190.116 312.185 189.684C312.27 189.252 312.313 188.717 312.313 188.079ZM314.384 186.05C314.384 185.568 314.529 185.186 314.82 184.902C315.11 184.612 315.482 184.467 315.935 184.467C316.389 184.467 316.761 184.612 317.051 184.902C317.341 185.186 317.487 185.568 317.487 186.05C317.487 186.539 317.341 186.928 317.051 187.219C316.761 187.502 316.389 187.644 315.935 187.644C315.482 187.644 315.11 187.502 314.82 187.219C314.529 186.928 314.384 186.539 314.384 186.05ZM320.589 184.584L316.286 192H315.33L319.633 184.584H320.589ZM315.935 185.062C315.695 185.062 315.503 185.147 315.362 185.317C315.227 185.48 315.16 185.724 315.16 186.05C315.16 186.376 315.227 186.624 315.362 186.794C315.503 186.964 315.695 187.049 315.935 187.049C316.176 187.049 316.367 186.964 316.509 186.794C316.651 186.617 316.722 186.369 316.722 186.05C316.722 185.724 316.651 185.48 316.509 185.317C316.367 185.147 316.176 185.062 315.935 185.062ZM318.453 190.534C318.453 190.045 318.599 189.659 318.889 189.376C319.18 189.085 319.551 188.94 320.005 188.94C320.458 188.94 320.826 189.085 321.11 189.376C321.4 189.659 321.545 190.045 321.545 190.534C321.545 191.015 321.4 191.401 321.11 191.692C320.826 191.982 320.458 192.128 320.005 192.128C319.551 192.128 319.18 191.986 318.889 191.702C318.599 191.412 318.453 191.022 318.453 190.534ZM319.994 189.546C319.753 189.546 319.562 189.631 319.42 189.801C319.279 189.964 319.208 190.208 319.208 190.534C319.208 190.852 319.279 191.097 319.42 191.267C319.562 191.43 319.753 191.511 319.994 191.511C320.235 191.511 320.426 191.43 320.568 191.267C320.71 191.097 320.78 190.852 320.78 190.534C320.78 190.208 320.71 189.964 320.568 189.801C320.426 189.631 320.235 189.546 319.994 189.546Z" fill="#7B6F72"/>
<g opacity="0.3">
<line x1="18" y1="49.4" x2="301" y2="49.4" stroke="#ADA4A5" stroke-width="1.2"/>
<line x1="18" y1="77.4" x2="301" y2="77.4" stroke="#ADA4A5" stroke-width="1.2"/>
<line x1="18" y1="104.4" x2="301" y2="104.4" stroke="#ADA4A5" stroke-width="1.2"/>
<line x1="18" y1="131.4" x2="301" y2="131.4" stroke="#ADA4A5" stroke-width="1.2"/>
<line x1="18" y1="159.4" x2="301" y2="159.4" stroke="#ADA4A5" stroke-width="1.2"/>
<line x1="18" y1="186.4" x2="301" y2="186.4" stroke="#ADA4A5" stroke-width="1.2"/>
</g>
<path d="M25.576 209.084C25.024 209.084 24.528 208.988 24.088 208.796C23.656 208.596 23.316 208.324 23.068 207.98C22.82 207.628 22.692 207.224 22.684 206.768H23.848C23.888 207.16 24.048 207.492 24.328 207.764C24.616 208.028 25.032 208.16 25.576 208.16C26.096 208.16 26.504 208.032 26.8 207.776C27.104 207.512 27.256 207.176 27.256 206.768C27.256 206.448 27.168 206.188 26.992 205.988C26.816 205.788 26.596 205.636 26.332 205.532C26.068 205.428 25.712 205.316 25.264 205.196C24.712 205.052 24.268 204.908 23.932 204.764C23.604 204.62 23.32 204.396 23.08 204.092C22.848 203.78 22.732 203.364 22.732 202.844C22.732 202.388 22.848 201.984 23.08 201.632C23.312 201.28 23.636 201.008 24.052 200.816C24.476 200.624 24.96 200.528 25.504 200.528C26.288 200.528 26.928 200.724 27.424 201.116C27.928 201.508 28.212 202.028 28.276 202.676H27.076C27.036 202.356 26.868 202.076 26.572 201.836C26.276 201.588 25.884 201.464 25.396 201.464C24.94 201.464 24.568 201.584 24.28 201.824C23.992 202.056 23.848 202.384 23.848 202.808C23.848 203.112 23.932 203.36 24.1 203.552C24.276 203.744 24.488 203.892 24.736 203.996C24.992 204.092 25.348 204.204 25.804 204.332C26.356 204.484 26.8 204.636 27.136 204.788C27.472 204.932 27.76 205.16 28 205.472C28.24 205.776 28.36 206.192 28.36 206.72C28.36 207.128 28.252 207.512 28.036 207.872C27.82 208.232 27.5 208.524 27.076 208.748C26.652 208.972 26.152 209.084 25.576 209.084ZM35.799 202.424V209H34.707V208.028C34.499 208.364 34.207 208.628 33.831 208.82C33.463 209.004 33.055 209.096 32.607 209.096C32.095 209.096 31.635 208.992 31.227 208.784C30.819 208.568 30.495 208.248 30.255 207.824C30.023 207.4 29.907 206.884 29.907 206.276V202.424H30.987V206.132C30.987 206.78 31.151 207.28 31.479 207.632C31.807 207.976 32.255 208.148 32.823 208.148C33.407 208.148 33.867 207.968 34.203 207.608C34.539 207.248 34.707 206.724 34.707 206.036V202.424H35.799ZM40.8468 202.304C41.6468 202.304 42.2948 202.548 42.7908 203.036C43.2868 203.516 43.5348 204.212 43.5348 205.124V209H42.4548V205.28C42.4548 204.624 42.2908 204.124 41.9628 203.78C41.6348 203.428 41.1868 203.252 40.6188 203.252C40.0428 203.252 39.5828 203.432 39.2388 203.792C38.9028 204.152 38.7348 204.676 38.7348 205.364V209H37.6428V202.424H38.7348V203.36C38.9508 203.024 39.2428 202.764 39.6108 202.58C39.9868 202.396 40.3988 202.304 40.8468 202.304Z" fill="#7B6F72"/>
<path d="M74.408 200.696V209H73.316V202.808L70.556 209H69.788L67.016 202.796V209H65.924V200.696H67.1L70.172 207.56L73.244 200.696H74.408ZM79.1279 209.108C78.5119 209.108 77.9519 208.968 77.4479 208.688C76.9519 208.408 76.5599 208.012 76.2719 207.5C75.9919 206.98 75.8519 206.38 75.8519 205.7C75.8519 205.028 75.9959 204.436 76.2839 203.924C76.5799 203.404 76.9799 203.008 77.4839 202.736C77.9879 202.456 78.5519 202.316 79.1759 202.316C79.7999 202.316 80.3639 202.456 80.8679 202.736C81.3719 203.008 81.7679 203.4 82.0559 203.912C82.3519 204.424 82.4999 205.02 82.4999 205.7C82.4999 206.38 82.3479 206.98 82.0439 207.5C81.7479 208.012 81.3439 208.408 80.8319 208.688C80.3199 208.968 79.7519 209.108 79.1279 209.108ZM79.1279 208.148C79.5199 208.148 79.8879 208.056 80.2319 207.872C80.5759 207.688 80.8519 207.412 81.0599 207.044C81.2759 206.676 81.3839 206.228 81.3839 205.7C81.3839 205.172 81.2799 204.724 81.0719 204.356C80.8639 203.988 80.5919 203.716 80.2559 203.54C79.9199 203.356 79.5559 203.264 79.1639 203.264C78.7639 203.264 78.3959 203.356 78.0599 203.54C77.7319 203.716 77.4679 203.988 77.2679 204.356C77.0679 204.724 76.9679 205.172 76.9679 205.7C76.9679 206.236 77.0639 206.688 77.2559 207.056C77.4559 207.424 77.7199 207.7 78.0479 207.884C78.3759 208.06 78.7359 208.148 79.1279 208.148ZM87.1397 202.304C87.9397 202.304 88.5877 202.548 89.0837 203.036C89.5797 203.516 89.8277 204.212 89.8277 205.124V209H88.7477V205.28C88.7477 204.624 88.5837 204.124 88.2557 203.78C87.9277 203.428 87.4797 203.252 86.9117 203.252C86.3357 203.252 85.8757 203.432 85.5317 203.792C85.1957 204.152 85.0277 204.676 85.0277 205.364V209H83.9357V202.424H85.0277V203.36C85.2437 203.024 85.5357 202.764 85.9037 202.58C86.2797 202.396 86.6917 202.304 87.1397 202.304Z" fill="#7B6F72"/>
<path d="M117.072 200.636V201.524H114.792V209H113.7V201.524H111.408V200.636H117.072ZM124.248 202.424V209H123.156V208.028C122.948 208.364 122.656 208.628 122.28 208.82C121.912 209.004 121.504 209.096 121.056 209.096C120.544 209.096 120.084 208.992 119.676 208.784C119.268 208.568 118.944 208.248 118.704 207.824C118.472 207.4 118.356 206.884 118.356 206.276V202.424H119.436V206.132C119.436 206.78 119.6 207.28 119.928 207.632C120.256 207.976 120.704 208.148 121.272 208.148C121.856 208.148 122.316 207.968 122.652 207.608C122.988 207.248 123.156 206.724 123.156 206.036V202.424H124.248ZM132.092 205.46C132.092 205.668 132.08 205.888 132.056 206.12H126.8C126.84 206.768 127.06 207.276 127.46 207.644C127.868 208.004 128.36 208.184 128.936 208.184C129.408 208.184 129.8 208.076 130.112 207.86C130.432 207.636 130.656 207.34 130.784 206.972H131.96C131.784 207.604 131.432 208.12 130.904 208.52C130.376 208.912 129.72 209.108 128.936 209.108C128.312 209.108 127.752 208.968 127.256 208.688C126.768 208.408 126.384 208.012 126.104 207.5C125.824 206.98 125.684 206.38 125.684 205.7C125.684 205.02 125.82 204.424 126.092 203.912C126.364 203.4 126.744 203.008 127.232 202.736C127.728 202.456 128.296 202.316 128.936 202.316C129.56 202.316 130.112 202.452 130.592 202.724C131.072 202.996 131.44 203.372 131.696 203.852C131.96 204.324 132.092 204.86 132.092 205.46ZM130.964 205.232C130.964 204.816 130.872 204.46 130.688 204.164C130.504 203.86 130.252 203.632 129.932 203.48C129.62 203.32 129.272 203.24 128.888 203.24C128.336 203.24 127.864 203.416 127.472 203.768C127.088 204.12 126.868 204.608 126.812 205.232H130.964Z" fill="#7B6F72"/>
<path d="M164.436 200.636L162.012 209H160.788L158.844 202.268L156.828 209L155.616 209.012L153.276 200.636H154.44L156.264 207.728L158.28 200.636H159.504L161.424 207.704L163.26 200.636H164.436ZM171.631 205.46C171.631 205.668 171.619 205.888 171.595 206.12H166.339C166.379 206.768 166.599 207.276 166.999 207.644C167.407 208.004 167.899 208.184 168.475 208.184C168.947 208.184 169.339 208.076 169.651 207.86C169.971 207.636 170.195 207.34 170.323 206.972H171.499C171.323 207.604 170.971 208.12 170.443 208.52C169.915 208.912 169.259 209.108 168.475 209.108C167.851 209.108 167.291 208.968 166.795 208.688C166.307 208.408 165.923 208.012 165.643 207.5C165.363 206.98 165.223 206.38 165.223 205.7C165.223 205.02 165.359 204.424 165.631 203.912C165.903 203.4 166.283 203.008 166.771 202.736C167.267 202.456 167.835 202.316 168.475 202.316C169.099 202.316 169.651 202.452 170.131 202.724C170.611 202.996 170.979 203.372 171.235 203.852C171.499 204.324 171.631 204.86 171.631 205.46ZM170.503 205.232C170.503 204.816 170.411 204.46 170.227 204.164C170.043 203.86 169.791 203.632 169.471 203.48C169.159 203.32 168.811 203.24 168.427 203.24C167.875 203.24 167.403 203.416 167.011 203.768C166.627 204.12 166.407 204.608 166.351 205.232H170.503ZM172.664 205.688C172.664 205.016 172.8 204.428 173.072 203.924C173.344 203.412 173.716 203.016 174.188 202.736C174.668 202.456 175.204 202.316 175.796 202.316C176.308 202.316 176.784 202.436 177.224 202.676C177.664 202.908 178 203.216 178.232 203.6V200.12H179.336V209H178.232V207.764C178.016 208.156 177.696 208.48 177.272 208.736C176.848 208.984 176.352 209.108 175.784 209.108C175.2 209.108 174.668 208.964 174.188 208.676C173.716 208.388 173.344 207.984 173.072 207.464C172.8 206.944 172.664 206.352 172.664 205.688ZM178.232 205.7C178.232 205.204 178.132 204.772 177.932 204.404C177.732 204.036 177.46 203.756 177.116 203.564C176.78 203.364 176.408 203.264 176 203.264C175.592 203.264 175.22 203.36 174.884 203.552C174.548 203.744 174.28 204.024 174.08 204.392C173.88 204.76 173.78 205.192 173.78 205.688C173.78 206.192 173.88 206.632 174.08 207.008C174.28 207.376 174.548 207.66 174.884 207.86C175.22 208.052 175.592 208.148 176 208.148C176.408 208.148 176.78 208.052 177.116 207.86C177.46 207.66 177.732 207.376 177.932 207.008C178.132 206.632 178.232 206.196 178.232 205.7Z" fill="#7B6F72"/>
<path d="M207.804 200.576V202.22H205.572V209H203.52V202.22H201.288V200.576H207.804ZM212.95 202.232C213.718 202.232 214.334 202.488 214.798 203C215.262 203.504 215.494 204.2 215.494 205.088V209H213.454V205.364C213.454 204.916 213.338 204.568 213.106 204.32C212.874 204.072 212.562 203.948 212.17 203.948C211.778 203.948 211.466 204.072 211.234 204.32C211.002 204.568 210.886 204.916 210.886 205.364V209H208.834V200.12H210.886V203.204C211.094 202.908 211.378 202.672 211.738 202.496C212.098 202.32 212.502 202.232 212.95 202.232ZM223.532 202.304V209H221.48V208.088C221.272 208.384 220.988 208.624 220.628 208.808C220.276 208.984 219.884 209.072 219.452 209.072C218.94 209.072 218.488 208.96 218.096 208.736C217.704 208.504 217.4 208.172 217.184 207.74C216.968 207.308 216.86 206.8 216.86 206.216V202.304H218.9V205.94C218.9 206.388 219.016 206.736 219.248 206.984C219.48 207.232 219.792 207.356 220.184 207.356C220.584 207.356 220.9 207.232 221.132 206.984C221.364 206.736 221.48 206.388 221.48 205.94V202.304H223.532Z" fill="url(#paint1_linear_430_433)"/>
<path d="M248.652 200.636V201.524H245.016V204.344H247.968V205.232H245.016V209H243.924V200.636H248.652ZM251.063 203.492C251.255 203.116 251.527 202.824 251.879 202.616C252.239 202.408 252.675 202.304 253.187 202.304V203.432H252.899C251.675 203.432 251.063 204.096 251.063 205.424V209H249.971V202.424H251.063V203.492ZM255.011 201.356C254.803 201.356 254.627 201.284 254.483 201.14C254.339 200.996 254.267 200.82 254.267 200.612C254.267 200.404 254.339 200.228 254.483 200.084C254.627 199.94 254.803 199.868 255.011 199.868C255.211 199.868 255.379 199.94 255.515 200.084C255.659 200.228 255.731 200.404 255.731 200.612C255.731 200.82 255.659 200.996 255.515 201.14C255.379 201.284 255.211 201.356 255.011 201.356ZM255.539 202.424V209H254.447V202.424H255.539Z" fill="#7B6F72"/>
<path d="M280.576 209.084C280.024 209.084 279.528 208.988 279.088 208.796C278.656 208.596 278.316 208.324 278.068 207.98C277.82 207.628 277.692 207.224 277.684 206.768H278.848C278.888 207.16 279.048 207.492 279.328 207.764C279.616 208.028 280.032 208.16 280.576 208.16C281.096 208.16 281.504 208.032 281.8 207.776C282.104 207.512 282.256 207.176 282.256 206.768C282.256 206.448 282.168 206.188 281.992 205.988C281.816 205.788 281.596 205.636 281.332 205.532C281.068 205.428 280.712 205.316 280.264 205.196C279.712 205.052 279.268 204.908 278.932 204.764C278.604 204.62 278.32 204.396 278.08 204.092C277.848 203.78 277.732 203.364 277.732 202.844C277.732 202.388 277.848 201.984 278.08 201.632C278.312 201.28 278.636 201.008 279.052 200.816C279.476 200.624 279.96 200.528 280.504 200.528C281.288 200.528 281.928 200.724 282.424 201.116C282.928 201.508 283.212 202.028 283.276 202.676H282.076C282.036 202.356 281.868 202.076 281.572 201.836C281.276 201.588 280.884 201.464 280.396 201.464C279.94 201.464 279.568 201.584 279.28 201.824C278.992 202.056 278.848 202.384 278.848 202.808C278.848 203.112 278.932 203.36 279.1 203.552C279.276 203.744 279.488 203.892 279.736 203.996C279.992 204.092 280.348 204.204 280.804 204.332C281.356 204.484 281.8 204.636 282.136 204.788C282.472 204.932 282.76 205.16 283 205.472C283.24 205.776 283.36 206.192 283.36 206.72C283.36 207.128 283.252 207.512 283.036 207.872C282.82 208.232 282.5 208.524 282.076 208.748C281.652 208.972 281.152 209.084 280.576 209.084ZM284.559 205.688C284.559 205.016 284.695 204.428 284.967 203.924C285.239 203.412 285.611 203.016 286.083 202.736C286.563 202.456 287.095 202.316 287.679 202.316C288.255 202.316 288.755 202.44 289.179 202.688C289.603 202.936 289.919 203.248 290.127 203.624V202.424H291.231V209H290.127V207.776C289.911 208.16 289.587 208.48 289.155 208.736C288.731 208.984 288.235 209.108 287.667 209.108C287.083 209.108 286.555 208.964 286.083 208.676C285.611 208.388 285.239 207.984 284.967 207.464C284.695 206.944 284.559 206.352 284.559 205.688ZM290.127 205.7C290.127 205.204 290.027 204.772 289.827 204.404C289.627 204.036 289.355 203.756 289.011 203.564C288.675 203.364 288.303 203.264 287.895 203.264C287.487 203.264 287.115 203.36 286.779 203.552C286.443 203.744 286.175 204.024 285.975 204.392C285.775 204.76 285.675 205.192 285.675 205.688C285.675 206.192 285.775 206.632 285.975 207.008C286.175 207.376 286.443 207.66 286.779 207.86C287.115 208.052 287.487 208.148 287.895 208.148C288.303 208.148 288.675 208.052 289.011 207.86C289.355 207.66 289.627 207.376 289.827 207.008C290.027 206.632 290.127 206.196 290.127 205.7ZM294.408 203.324V207.2C294.408 207.52 294.476 207.748 294.612 207.884C294.748 208.012 294.984 208.076 295.32 208.076H296.124V209H295.14C294.532 209 294.076 208.86 293.772 208.58C293.468 208.3 293.316 207.84 293.316 207.2V203.324H292.464V202.424H293.316V200.768H294.408V202.424H296.124V203.324H294.408Z" fill="#7B6F72"/>
<path d="M19 96.5276C19 96.5276 36.5657 122.26 51.2828 122.26C70.2727 122.26 80.7114 94.2116 100.182 94.2116C120.596 94.2116 119.172 137.443 139.111 137.443C171.869 137.443 158.101 78 190.384 78C226.465 78 197.98 157 241.182 157C257.75 157 257.515 142.179 267.263 126.17C272.185 118.087 279.464 111.572 287.82 107.13C292.374 104.709 296.538 103.503 301 103.733" stroke="url(#paint2_linear_430_433)" stroke-width="2.2"/>
<circle cx="50" cy="122" r="2.5" fill="white" stroke="url(#paint3_linear_430_433)"/>
<circle cx="21" cy="98" r="2.5" fill="white" stroke="url(#paint4_linear_430_433)"/>
<path d="M142.5 138C142.5 139.381 141.381 140.5 140 140.5C138.619 140.5 137.5 139.381 137.5 138C137.5 136.619 138.619 135.5 140 135.5C141.381 135.5 142.5 136.619 142.5 138Z" fill="white" stroke="url(#paint5_linear_430_433)"/>
<circle cx="300" cy="103" r="2.5" fill="white" stroke="url(#paint6_linear_430_433)"/>
<circle cx="238" cy="157" r="2.5" fill="white" stroke="url(#paint7_linear_430_433)"/>
<circle cx="192" cy="78" r="2.5" fill="white" stroke="url(#paint8_linear_430_433)"/>
<circle cx="100" cy="94" r="2.5" fill="white" stroke="url(#paint9_linear_430_433)"/>
<g filter="url(#filter0_d_430_433)">
<rect x="40" y="48" width="94" height="43" rx="8" fill="white"/>
</g>
<rect x="50" y="76" width="74" height="5" rx="2.5" fill="#F7F8F8"/>
<path d="M50 78.5C50 77.1193 51.1193 76 52.5 76H104V81H52.5C51.1193 81 50 79.8807 50 78.5Z" fill="url(#paint10_linear_430_433)"/>
<path d="M50.43 65.51C50.43 64.83 50.5833 64.22 50.89 63.68C51.1967 63.1333 51.6133 62.7067 52.14 62.4C52.6733 62.0933 53.2633 61.94 53.91 61.94C54.67 61.94 55.3333 62.1233 55.9 62.49C56.4667 62.8567 56.88 63.3767 57.14 64.05H56.05C55.8567 63.63 55.5767 63.3067 55.21 63.08C54.85 62.8533 54.4167 62.74 53.91 62.74C53.4233 62.74 52.9867 62.8533 52.6 63.08C52.2133 63.3067 51.91 63.63 51.69 64.05C51.47 64.4633 51.36 64.95 51.36 65.51C51.36 66.0633 51.47 66.55 51.69 66.97C51.91 67.3833 52.2133 67.7033 52.6 67.93C52.9867 68.1567 53.4233 68.27 53.91 68.27C54.4167 68.27 54.85 68.16 55.21 67.94C55.5767 67.7133 55.8567 67.39 56.05 66.97H57.14C56.88 67.6367 56.4667 68.1533 55.9 68.52C55.3333 68.88 54.67 69.06 53.91 69.06C53.2633 69.06 52.6733 68.91 52.14 68.61C51.6133 68.3033 51.1967 67.88 50.89 67.34C50.5833 66.8 50.43 66.19 50.43 65.51ZM58.1546 66.24C58.1546 65.68 58.2679 65.19 58.4946 64.77C58.7213 64.3433 59.0313 64.0133 59.4246 63.78C59.8246 63.5467 60.2679 63.43 60.7546 63.43C61.2346 63.43 61.6513 63.5333 62.0046 63.74C62.3579 63.9467 62.6213 64.2067 62.7946 64.52V63.52H63.7146V69H62.7946V67.98C62.6146 68.3 62.3446 68.5667 61.9846 68.78C61.6313 68.9867 61.2179 69.09 60.7446 69.09C60.2579 69.09 59.8179 68.97 59.4246 68.73C59.0313 68.49 58.7213 68.1533 58.4946 67.72C58.2679 67.2867 58.1546 66.7933 58.1546 66.24ZM62.7946 66.25C62.7946 65.8367 62.7113 65.4767 62.5446 65.17C62.3779 64.8633 62.1513 64.63 61.8646 64.47C61.5846 64.3033 61.2746 64.22 60.9346 64.22C60.5946 64.22 60.2846 64.3 60.0046 64.46C59.7246 64.62 59.5013 64.8533 59.3346 65.16C59.1679 65.4667 59.0846 65.8267 59.0846 66.24C59.0846 66.66 59.1679 67.0267 59.3346 67.34C59.5013 67.6467 59.7246 67.8833 60.0046 68.05C60.2846 68.21 60.5946 68.29 60.9346 68.29C61.2746 68.29 61.5846 68.21 61.8646 68.05C62.1513 67.8833 62.3779 67.6467 62.5446 67.34C62.7113 67.0267 62.7946 66.6633 62.7946 66.25ZM66.1624 61.6V69H65.2524V61.6H66.1624ZM70.1034 69.09C69.59 69.09 69.1234 68.9733 68.7034 68.74C68.29 68.5067 67.9634 68.1767 67.7234 67.75C67.49 67.3167 67.3734 66.8167 67.3734 66.25C67.3734 65.69 67.4934 65.1967 67.7334 64.77C67.98 64.3367 68.3134 64.0067 68.7334 63.78C69.1534 63.5467 69.6234 63.43 70.1434 63.43C70.6634 63.43 71.1334 63.5467 71.5534 63.78C71.9734 64.0067 72.3034 64.3333 72.5434 64.76C72.79 65.1867 72.9134 65.6833 72.9134 66.25C72.9134 66.8167 72.7867 67.3167 72.5334 67.75C72.2867 68.1767 71.95 68.5067 71.5234 68.74C71.0967 68.9733 70.6234 69.09 70.1034 69.09ZM70.1034 68.29C70.43 68.29 70.7367 68.2133 71.0234 68.06C71.31 67.9067 71.54 67.6767 71.7134 67.37C71.8934 67.0633 71.9834 66.69 71.9834 66.25C71.9834 65.81 71.8967 65.4367 71.7234 65.13C71.55 64.8233 71.3234 64.5967 71.0434 64.45C70.7634 64.2967 70.46 64.22 70.1334 64.22C69.8 64.22 69.4934 64.2967 69.2134 64.45C68.94 64.5967 68.72 64.8233 68.5534 65.13C68.3867 65.4367 68.3034 65.81 68.3034 66.25C68.3034 66.6967 68.3834 67.0733 68.5434 67.38C68.71 67.6867 68.93 67.9167 69.2034 68.07C69.4767 68.2167 69.7767 68.29 70.1034 68.29ZM75.0198 64.41C75.1798 64.0967 75.4065 63.8533 75.6998 63.68C75.9998 63.5067 76.3632 63.42 76.7898 63.42V64.36H76.5498C75.5298 64.36 75.0198 64.9133 75.0198 66.02V69H74.1098V63.52H75.0198V64.41ZM78.3103 62.63C78.137 62.63 77.9903 62.57 77.8703 62.45C77.7503 62.33 77.6903 62.1833 77.6903 62.01C77.6903 61.8367 77.7503 61.69 77.8703 61.57C77.9903 61.45 78.137 61.39 78.3103 61.39C78.477 61.39 78.617 61.45 78.7303 61.57C78.8503 61.69 78.9103 61.8367 78.9103 62.01C78.9103 62.1833 78.8503 62.33 78.7303 62.45C78.617 62.57 78.477 62.63 78.3103 62.63ZM78.7503 63.52V69H77.8403V63.52H78.7503ZM85.3013 66.05C85.3013 66.2233 85.2913 66.4067 85.2713 66.6H80.8913C80.9246 67.14 81.1079 67.5633 81.4413 67.87C81.7813 68.17 82.1913 68.32 82.6713 68.32C83.0646 68.32 83.3913 68.23 83.6513 68.05C83.9179 67.8633 84.1046 67.6167 84.2113 67.31H85.1913C85.0446 67.8367 84.7513 68.2667 84.3113 68.6C83.8713 68.9267 83.3246 69.09 82.6713 69.09C82.1513 69.09 81.6846 68.9733 81.2713 68.74C80.8646 68.5067 80.5446 68.1767 80.3113 67.75C80.0779 67.3167 79.9613 66.8167 79.9613 66.25C79.9613 65.6833 80.0746 65.1867 80.3013 64.76C80.5279 64.3333 80.8446 64.0067 81.2513 63.78C81.6646 63.5467 82.1379 63.43 82.6713 63.43C83.1913 63.43 83.6513 63.5433 84.0513 63.77C84.4513 63.9967 84.7579 64.31 84.9713 64.71C85.1913 65.1033 85.3013 65.55 85.3013 66.05ZM84.3613 65.86C84.3613 65.5133 84.2846 65.2167 84.1313 64.97C83.9779 64.7167 83.7679 64.5267 83.5013 64.4C83.2413 64.2667 82.9513 64.2 82.6313 64.2C82.1713 64.2 81.7779 64.3467 81.4513 64.64C81.1313 64.9333 80.9479 65.34 80.9013 65.86H84.3613ZM88.4424 69.09C88.0224 69.09 87.6458 69.02 87.3124 68.88C86.9791 68.7333 86.7158 68.5333 86.5224 68.28C86.3291 68.02 86.2224 67.7233 86.2024 67.39H87.1424C87.1691 67.6633 87.2958 67.8867 87.5224 68.06C87.7558 68.2333 88.0591 68.32 88.4324 68.32C88.7791 68.32 89.0524 68.2433 89.2524 68.09C89.4524 67.9367 89.5524 67.7433 89.5524 67.51C89.5524 67.27 89.4458 67.0933 89.2324 66.98C89.0191 66.86 88.6891 66.7433 88.2424 66.63C87.8358 66.5233 87.5024 66.4167 87.2424 66.31C86.9891 66.1967 86.7691 66.0333 86.5824 65.82C86.4024 65.6 86.3124 65.3133 86.3124 64.96C86.3124 64.68 86.3958 64.4233 86.5624 64.19C86.7291 63.9567 86.9658 63.7733 87.2724 63.64C87.5791 63.5 87.9291 63.43 88.3224 63.43C88.9291 63.43 89.4191 63.5833 89.7924 63.89C90.1658 64.1967 90.3658 64.6167 90.3924 65.15H89.4824C89.4624 64.8633 89.3458 64.6333 89.1324 64.46C88.9258 64.2867 88.6458 64.2 88.2924 64.2C87.9658 64.2 87.7058 64.27 87.5124 64.41C87.3191 64.55 87.2224 64.7333 87.2224 64.96C87.2224 65.14 87.2791 65.29 87.3924 65.41C87.5124 65.5233 87.6591 65.6167 87.8324 65.69C88.0124 65.7567 88.2591 65.8333 88.5724 65.92C88.9658 66.0267 89.2858 66.1333 89.5324 66.24C89.7791 66.34 89.9891 66.4933 90.1624 66.7C90.3424 66.9067 90.4358 67.1767 90.4424 67.51C90.4424 67.81 90.3591 68.08 90.1924 68.32C90.0258 68.56 89.7891 68.75 89.4824 68.89C89.1824 69.0233 88.8358 69.09 88.4424 69.09Z" fill="#7B6F72"/>
<path d="M96.552 65.992C96.2533 65.8747 96.024 65.704 95.864 65.48C95.704 65.256 95.624 64.984 95.624 64.664C95.624 64.376 95.696 64.1173 95.84 63.888C95.984 63.6533 96.1973 63.4693 96.48 63.336C96.768 63.1973 97.1147 63.128 97.52 63.128C97.9253 63.128 98.2693 63.1973 98.552 63.336C98.84 63.4693 99.056 63.6533 99.2 63.888C99.3493 64.1173 99.424 64.376 99.424 64.664C99.424 64.9733 99.3413 65.2453 99.176 65.48C99.0107 65.7093 98.784 65.88 98.496 65.992C98.8267 66.0933 99.088 66.272 99.28 66.528C99.4773 66.7787 99.576 67.0827 99.576 67.44C99.576 67.7867 99.4907 68.0907 99.32 68.352C99.1493 68.608 98.9067 68.808 98.592 68.952C98.2827 69.0907 97.9253 69.16 97.52 69.16C97.1147 69.16 96.7573 69.0907 96.448 68.952C96.144 68.808 95.9067 68.608 95.736 68.352C95.5653 68.0907 95.48 67.7867 95.48 67.44C95.48 67.0827 95.576 66.776 95.768 66.52C95.96 66.264 96.2213 66.088 96.552 65.992ZM98.72 64.752C98.72 64.4267 98.6133 64.176 98.4 64C98.1867 63.824 97.8933 63.736 97.52 63.736C97.152 63.736 96.8613 63.824 96.648 64C96.4347 64.176 96.328 64.4293 96.328 64.76C96.328 65.0587 96.4373 65.2987 96.656 65.48C96.88 65.6613 97.168 65.752 97.52 65.752C97.8773 65.752 98.1653 65.6613 98.384 65.48C98.608 65.2933 98.72 65.0507 98.72 64.752ZM97.52 66.312C97.1253 66.312 96.8027 66.4053 96.552 66.592C96.3013 66.7733 96.176 67.048 96.176 67.416C96.176 67.7573 96.296 68.032 96.536 68.24C96.7813 68.448 97.1093 68.552 97.52 68.552C97.9307 68.552 98.256 68.448 98.496 68.24C98.736 68.032 98.856 67.7573 98.856 67.416C98.856 67.0587 98.7333 66.7867 98.488 66.6C98.2427 66.408 97.92 66.312 97.52 66.312ZM100.455 68.416C101.132 67.872 101.663 67.4267 102.047 67.08C102.431 66.728 102.754 66.3627 103.015 65.984C103.282 65.6 103.415 65.224 103.415 64.856C103.415 64.5093 103.33 64.2373 103.159 64.04C102.994 63.8373 102.724 63.736 102.351 63.736C101.988 63.736 101.706 63.8507 101.503 64.08C101.306 64.304 101.199 64.6053 101.183 64.984H100.479C100.5 64.3867 100.682 63.9253 101.023 63.6C101.364 63.2747 101.804 63.112 102.343 63.112C102.892 63.112 103.327 63.264 103.647 63.568C103.972 63.872 104.135 64.2907 104.135 64.824C104.135 65.2667 104.002 65.6987 103.735 66.12C103.474 66.536 103.175 66.904 102.839 67.224C102.503 67.5387 102.074 67.9067 101.551 68.328H104.303V68.936H100.455V68.416ZM104.984 64.52C104.984 64.1573 105.094 63.8693 105.312 63.656C105.531 63.4373 105.811 63.328 106.152 63.328C106.494 63.328 106.774 63.4373 106.992 63.656C107.211 63.8693 107.32 64.1573 107.32 64.52C107.32 64.888 107.211 65.1813 106.992 65.4C106.774 65.6133 106.494 65.72 106.152 65.72C105.811 65.72 105.531 65.6133 105.312 65.4C105.094 65.1813 104.984 64.888 104.984 64.52ZM109.656 63.416L106.416 69H105.696L108.936 63.416H109.656ZM106.152 63.776C105.971 63.776 105.827 63.84 105.72 63.968C105.619 64.0907 105.568 64.2747 105.568 64.52C105.568 64.7653 105.619 64.952 105.72 65.08C105.827 65.208 105.971 65.272 106.152 65.272C106.334 65.272 106.478 65.208 106.584 65.08C106.691 64.9467 106.744 64.76 106.744 64.52C106.744 64.2747 106.691 64.0907 106.584 63.968C106.478 63.84 106.334 63.776 106.152 63.776ZM108.048 67.896C108.048 67.528 108.158 67.2373 108.376 67.024C108.595 66.8053 108.875 66.696 109.216 66.696C109.558 66.696 109.835 66.8053 110.048 67.024C110.267 67.2373 110.376 67.528 110.376 67.896C110.376 68.2587 110.267 68.5493 110.048 68.768C109.835 68.9867 109.558 69.096 109.216 69.096C108.875 69.096 108.595 68.9893 108.376 68.776C108.158 68.5573 108.048 68.264 108.048 67.896ZM109.208 67.152C109.027 67.152 108.883 67.216 108.776 67.344C108.67 67.4667 108.616 67.6507 108.616 67.896C108.616 68.136 108.67 68.32 108.776 68.448C108.883 68.5707 109.027 68.632 109.208 68.632C109.39 68.632 109.534 68.5707 109.64 68.448C109.747 68.32 109.8 68.136 109.8 67.896C109.8 67.6507 109.747 67.4667 109.64 67.344C109.534 67.216 109.39 67.152 109.208 67.152Z" fill="#42D742"/>
<path d="M114.909 63.4165V68.4165" stroke="#42D742" stroke-width="0.8" stroke-linecap="round" stroke-linejoin="round"/>
<path d="M112.9 65.4331L114.908 63.4164L116.917 65.4331" stroke="#42D742" stroke-width="0.8" stroke-linecap="round" stroke-linejoin="round"/>
<g filter="url(#filter1_d_430_433)">
<rect x="40" y="128" width="84" height="43" rx="8" fill="white"/>
</g>
<rect x="50" y="156" width="64" height="5" rx="2.5" fill="#F7F8F8"/>
<path d="M50 158.5C50 157.119 51.1193 156 52.5 156H67V161H52.5C51.1193 161 50 159.881 50 158.5Z" fill="url(#paint11_linear_430_433)"/>
<path d="M52.98 149.07C52.52 149.07 52.1067 148.99 51.74 148.83C51.38 148.663 51.0967 148.437 50.89 148.15C50.6833 147.857 50.5767 147.52 50.57 147.14H51.54C51.5733 147.467 51.7067 147.743 51.94 147.97C52.18 148.19 52.5267 148.3 52.98 148.3C53.4133 148.3 53.7533 148.193 54 147.98C54.2533 147.76 54.38 147.48 54.38 147.14C54.38 146.873 54.3067 146.657 54.16 146.49C54.0133 146.323 53.83 146.197 53.61 146.11C53.39 146.023 53.0933 145.93 52.72 145.83C52.26 145.71 51.89 145.59 51.61 145.47C51.3367 145.35 51.1 145.163 50.9 144.91C50.7067 144.65 50.61 144.303 50.61 143.87C50.61 143.49 50.7067 143.153 50.9 142.86C51.0933 142.567 51.3633 142.34 51.71 142.18C52.0633 142.02 52.4667 141.94 52.92 141.94C53.5733 141.94 54.1067 142.103 54.52 142.43C54.94 142.757 55.1767 143.19 55.23 143.73H54.23C54.1967 143.463 54.0567 143.23 53.81 143.03C53.5633 142.823 53.2367 142.72 52.83 142.72C52.45 142.72 52.14 142.82 51.9 143.02C51.66 143.213 51.54 143.487 51.54 143.84C51.54 144.093 51.61 144.3 51.75 144.46C51.8967 144.62 52.0733 144.743 52.28 144.83C52.4933 144.91 52.79 145.003 53.17 145.11C53.63 145.237 54 145.363 54.28 145.49C54.56 145.61 54.8 145.8 55 146.06C55.2 146.313 55.3 146.66 55.3 147.1C55.3 147.44 55.21 147.76 55.03 148.06C54.85 148.36 54.5833 148.603 54.23 148.79C53.8767 148.977 53.46 149.07 52.98 149.07ZM61.4991 143.52V149H60.5891V148.19C60.4158 148.47 60.1725 148.69 59.8591 148.85C59.5525 149.003 59.2125 149.08 58.8391 149.08C58.4125 149.08 58.0291 148.993 57.6891 148.82C57.3491 148.64 57.0791 148.373 56.8791 148.02C56.6858 147.667 56.5891 147.237 56.5891 146.73V143.52H57.4891V146.61C57.4891 147.15 57.6258 147.567 57.8991 147.86C58.1725 148.147 58.5458 148.29 59.0191 148.29C59.5058 148.29 59.8891 148.14 60.1691 147.84C60.4491 147.54 60.5891 147.103 60.5891 146.53V143.52H61.4991ZM65.2956 143.43C65.769 143.43 66.1823 143.533 66.5356 143.74C66.8956 143.947 67.1623 144.207 67.3356 144.52V143.52H68.2556V149.12C68.2556 149.62 68.149 150.063 67.9356 150.45C67.7223 150.843 67.4156 151.15 67.0156 151.37C66.6223 151.59 66.1623 151.7 65.6356 151.7C64.9156 151.7 64.3156 151.53 63.8356 151.19C63.3556 150.85 63.0723 150.387 62.9856 149.8H63.8856C63.9856 150.133 64.1923 150.4 64.5056 150.6C64.819 150.807 65.1956 150.91 65.6356 150.91C66.1356 150.91 66.5423 150.753 66.8556 150.44C67.1756 150.127 67.3356 149.687 67.3356 149.12V147.97C67.1556 148.29 66.889 148.557 66.5356 148.77C66.1823 148.983 65.769 149.09 65.2956 149.09C64.809 149.09 64.3656 148.97 63.9656 148.73C63.5723 148.49 63.2623 148.153 63.0356 147.72C62.809 147.287 62.6956 146.793 62.6956 146.24C62.6956 145.68 62.809 145.19 63.0356 144.77C63.2623 144.343 63.5723 144.013 63.9656 143.78C64.3656 143.547 64.809 143.43 65.2956 143.43ZM67.3356 146.25C67.3356 145.837 67.2523 145.477 67.0856 145.17C66.919 144.863 66.6923 144.63 66.4056 144.47C66.1256 144.303 65.8156 144.22 65.4756 144.22C65.1356 144.22 64.8256 144.3 64.5456 144.46C64.2656 144.62 64.0423 144.853 63.8756 145.16C63.709 145.467 63.6256 145.827 63.6256 146.24C63.6256 146.66 63.709 147.027 63.8756 147.34C64.0423 147.647 64.2656 147.883 64.5456 148.05C64.8256 148.21 65.1356 148.29 65.4756 148.29C65.8156 148.29 66.1256 148.21 66.4056 148.05C66.6923 147.883 66.919 147.647 67.0856 147.34C67.2523 147.027 67.3356 146.663 67.3356 146.25ZM69.4534 146.24C69.4534 145.68 69.5668 145.19 69.7934 144.77C70.0201 144.343 70.3301 144.013 70.7234 143.78C71.1234 143.547 71.5668 143.43 72.0534 143.43C72.5334 143.43 72.9501 143.533 73.3034 143.74C73.6568 143.947 73.9201 144.207 74.0934 144.52V143.52H75.0134V149H74.0934V147.98C73.9134 148.3 73.6434 148.567 73.2834 148.78C72.9301 148.987 72.5168 149.09 72.0434 149.09C71.5568 149.09 71.1168 148.97 70.7234 148.73C70.3301 148.49 70.0201 148.153 69.7934 147.72C69.5668 147.287 69.4534 146.793 69.4534 146.24ZM74.0934 146.25C74.0934 145.837 74.0101 145.477 73.8434 145.17C73.6768 144.863 73.4501 144.63 73.1634 144.47C72.8834 144.303 72.5734 144.22 72.2334 144.22C71.8934 144.22 71.5834 144.3 71.3034 144.46C71.0234 144.62 70.8001 144.853 70.6334 145.16C70.4668 145.467 70.3834 145.827 70.3834 146.24C70.3834 146.66 70.4668 147.027 70.6334 147.34C70.8001 147.647 71.0234 147.883 71.3034 148.05C71.5834 148.21 71.8934 148.29 72.2334 148.29C72.5734 148.29 72.8834 148.21 73.1634 148.05C73.4501 147.883 73.6768 147.647 73.8434 147.34C74.0101 147.027 74.0934 146.663 74.0934 146.25ZM77.4613 144.41C77.6213 144.097 77.8479 143.853 78.1413 143.68C78.4413 143.507 78.8046 143.42 79.2313 143.42V144.36H78.9913C77.9713 144.36 77.4613 144.913 77.4613 146.02V149H76.5513V143.52H77.4613V144.41Z" fill="#7B6F72"/>
<path d="M85.48 144.672C85.5173 144.181 85.7067 143.797 86.048 143.52C86.3893 143.243 86.832 143.104 87.376 143.104C87.7387 143.104 88.0507 143.171 88.312 143.304C88.5787 143.432 88.7787 143.608 88.912 143.832C89.0507 144.056 89.12 144.309 89.12 144.592C89.12 144.923 89.024 145.208 88.832 145.448C88.6453 145.688 88.4 145.843 88.096 145.912V145.952C88.4427 146.037 88.7173 146.205 88.92 146.456C89.1227 146.707 89.224 147.035 89.224 147.44C89.224 147.744 89.1547 148.019 89.016 148.264C88.8773 148.504 88.6693 148.693 88.392 148.832C88.1147 148.971 87.7813 149.04 87.392 149.04C86.8267 149.04 86.3627 148.893 86 148.6C85.6373 148.301 85.4347 147.88 85.392 147.336H86.096C86.1333 147.656 86.264 147.917 86.488 148.12C86.712 148.323 87.0107 148.424 87.384 148.424C87.7573 148.424 88.04 148.328 88.232 148.136C88.4293 147.939 88.528 147.685 88.528 147.376C88.528 146.976 88.3947 146.688 88.128 146.512C87.8613 146.336 87.4587 146.248 86.92 146.248H86.736V145.64H86.928C87.4187 145.635 87.7893 145.555 88.04 145.4C88.2907 145.24 88.416 144.995 88.416 144.664C88.416 144.381 88.3227 144.155 88.136 143.984C87.9547 143.813 87.6933 143.728 87.352 143.728C87.0213 143.728 86.7547 143.813 86.552 143.984C86.3493 144.155 86.2293 144.384 86.192 144.672H85.48ZM91.1429 147.448C91.1963 147.752 91.3189 147.987 91.5109 148.152C91.7083 148.317 91.9723 148.4 92.3029 148.4C92.7456 148.4 93.0709 148.227 93.2789 147.88C93.4923 147.533 93.5936 146.949 93.5829 146.128C93.4709 146.368 93.2843 146.557 93.0229 146.696C92.7616 146.829 92.4709 146.896 92.1509 146.896C91.7936 146.896 91.4736 146.824 91.1909 146.68C90.9136 146.531 90.6949 146.315 90.5349 146.032C90.3749 145.749 90.2949 145.408 90.2949 145.008C90.2949 144.437 90.4603 143.979 90.7909 143.632C91.1216 143.28 91.5909 143.104 92.1989 143.104C92.9456 143.104 93.4683 143.347 93.7669 143.832C94.0709 144.317 94.2229 145.04 94.2229 146C94.2229 146.672 94.1616 147.227 94.0389 147.664C93.9216 148.101 93.7189 148.435 93.4309 148.664C93.1483 148.893 92.7589 149.008 92.2629 149.008C91.7189 149.008 91.2949 148.861 90.9909 148.568C90.6869 148.275 90.5136 147.901 90.4709 147.448H91.1429ZM92.2709 146.28C92.6283 146.28 92.9216 146.171 93.1509 145.952C93.3803 145.728 93.4949 145.427 93.4949 145.048C93.4949 144.648 93.3829 144.325 93.1589 144.08C92.9349 143.835 92.6203 143.712 92.2149 143.712C91.8416 143.712 91.5429 143.829 91.3189 144.064C91.1003 144.299 90.9909 144.608 90.9909 144.992C90.9909 145.381 91.1003 145.693 91.3189 145.928C91.5376 146.163 91.8549 146.28 92.2709 146.28ZM95.086 144.52C95.086 144.157 95.1953 143.869 95.414 143.656C95.6327 143.437 95.9127 143.328 96.254 143.328C96.5953 143.328 96.8753 143.437 97.094 143.656C97.3127 143.869 97.422 144.157 97.422 144.52C97.422 144.888 97.3127 145.181 97.094 145.4C96.8753 145.613 96.5953 145.72 96.254 145.72C95.9127 145.72 95.6327 145.613 95.414 145.4C95.1953 145.181 95.086 144.888 95.086 144.52ZM99.758 143.416L96.518 149H95.798L99.038 143.416H99.758ZM96.254 143.776C96.0727 143.776 95.9287 143.84 95.822 143.968C95.7207 144.091 95.67 144.275 95.67 144.52C95.67 144.765 95.7207 144.952 95.822 145.08C95.9287 145.208 96.0727 145.272 96.254 145.272C96.4353 145.272 96.5793 145.208 96.686 145.08C96.7927 144.947 96.846 144.76 96.846 144.52C96.846 144.275 96.7927 144.091 96.686 143.968C96.5793 143.84 96.4353 143.776 96.254 143.776ZM98.15 147.896C98.15 147.528 98.2593 147.237 98.478 147.024C98.6967 146.805 98.9767 146.696 99.318 146.696C99.6593 146.696 99.9367 146.805 100.15 147.024C100.369 147.237 100.478 147.528 100.478 147.896C100.478 148.259 100.369 148.549 100.15 148.768C99.9367 148.987 99.6593 149.096 99.318 149.096C98.9767 149.096 98.6967 148.989 98.478 148.776C98.2593 148.557 98.15 148.264 98.15 147.896ZM99.31 147.152C99.1287 147.152 98.9847 147.216 98.878 147.344C98.7713 147.467 98.718 147.651 98.718 147.896C98.718 148.136 98.7713 148.32 98.878 148.448C98.9847 148.571 99.1287 148.632 99.31 148.632C99.4913 148.632 99.6353 148.571 99.742 148.448C99.8487 148.32 99.902 148.136 99.902 147.896C99.902 147.651 99.8487 147.467 99.742 147.344C99.6353 147.216 99.4913 147.152 99.31 147.152Z" fill="#FF0000"/>
<path d="M105.091 148.583V143.583" stroke="#FF0000" stroke-width="0.8" stroke-linecap="round" stroke-linejoin="round"/>
<path d="M107.1 146.567L105.092 148.584L103.083 146.567" stroke="#FF0000" stroke-width="0.8" stroke-linecap="round" stroke-linejoin="round"/>
<g filter="url(#filter2_d_430_433)">
<rect x="160" y="107" width="73" height="43" rx="8" fill="white"/>
</g>
<rect x="170" y="135" width="53" height="5" rx="2.5" fill="#F7F8F8"/>
<path d="M170 137.5C170 136.119 171.119 135 172.5 135H188V140H172.5C171.119 140 170 138.881 170 137.5Z" fill="url(#paint12_linear_430_433)"/>
<path d="M173 123.27H171.85V128H170.94V123.27H170.23V122.52H170.94V122.13C170.94 121.517 171.097 121.07 171.41 120.79C171.73 120.503 172.24 120.36 172.94 120.36V121.12C172.54 121.12 172.257 121.2 172.09 121.36C171.93 121.513 171.85 121.77 171.85 122.13V122.52H173V123.27ZM173.721 125.24C173.721 124.68 173.834 124.19 174.061 123.77C174.288 123.343 174.598 123.013 174.991 122.78C175.391 122.547 175.834 122.43 176.321 122.43C176.801 122.43 177.218 122.533 177.571 122.74C177.924 122.947 178.188 123.207 178.361 123.52V122.52H179.281V128H178.361V126.98C178.181 127.3 177.911 127.567 177.551 127.78C177.198 127.987 176.784 128.09 176.311 128.09C175.824 128.09 175.384 127.97 174.991 127.73C174.598 127.49 174.288 127.153 174.061 126.72C173.834 126.287 173.721 125.793 173.721 125.24ZM178.361 125.25C178.361 124.837 178.278 124.477 178.111 124.17C177.944 123.863 177.718 123.63 177.431 123.47C177.151 123.303 176.841 123.22 176.501 123.22C176.161 123.22 175.851 123.3 175.571 123.46C175.291 123.62 175.068 123.853 174.901 124.16C174.734 124.467 174.651 124.827 174.651 125.24C174.651 125.66 174.734 126.027 174.901 126.34C175.068 126.647 175.291 126.883 175.571 127.05C175.851 127.21 176.161 127.29 176.501 127.29C176.841 127.29 177.151 127.21 177.431 127.05C177.718 126.883 177.944 126.647 178.111 126.34C178.278 126.027 178.361 125.663 178.361 125.25ZM181.929 123.27V126.5C181.929 126.767 181.985 126.957 182.099 127.07C182.212 127.177 182.409 127.23 182.689 127.23H183.359V128H182.539C182.032 128 181.652 127.883 181.399 127.65C181.145 127.417 181.019 127.033 181.019 126.5V123.27H180.309V122.52H181.019V121.14H181.929V122.52H183.359V123.27H181.929ZM186.401 128.09C185.981 128.09 185.605 128.02 185.271 127.88C184.938 127.733 184.675 127.533 184.481 127.28C184.288 127.02 184.181 126.723 184.161 126.39H185.101C185.128 126.663 185.255 126.887 185.481 127.06C185.715 127.233 186.018 127.32 186.391 127.32C186.738 127.32 187.011 127.243 187.211 127.09C187.411 126.937 187.511 126.743 187.511 126.51C187.511 126.27 187.405 126.093 187.191 125.98C186.978 125.86 186.648 125.743 186.201 125.63C185.795 125.523 185.461 125.417 185.201 125.31C184.948 125.197 184.728 125.033 184.541 124.82C184.361 124.6 184.271 124.313 184.271 123.96C184.271 123.68 184.355 123.423 184.521 123.19C184.688 122.957 184.925 122.773 185.231 122.64C185.538 122.5 185.888 122.43 186.281 122.43C186.888 122.43 187.378 122.583 187.751 122.89C188.125 123.197 188.325 123.617 188.351 124.15H187.441C187.421 123.863 187.305 123.633 187.091 123.46C186.885 123.287 186.605 123.2 186.251 123.2C185.925 123.2 185.665 123.27 185.471 123.41C185.278 123.55 185.181 123.733 185.181 123.96C185.181 124.14 185.238 124.29 185.351 124.41C185.471 124.523 185.618 124.617 185.791 124.69C185.971 124.757 186.218 124.833 186.531 124.92C186.925 125.027 187.245 125.133 187.491 125.24C187.738 125.34 187.948 125.493 188.121 125.7C188.301 125.907 188.395 126.177 188.401 126.51C188.401 126.81 188.318 127.08 188.151 127.32C187.985 127.56 187.748 127.75 187.441 127.89C187.141 128.023 186.795 128.09 186.401 128.09Z" fill="#7B6F72"/>
<path d="M194.32 126.712V126.16L197.128 122.272H198V126.08H198.8V126.712H198V128H197.28V126.712H194.32ZM197.312 123.032L195.16 126.08H197.312V123.032ZM199.439 127.416C200.117 126.872 200.647 126.427 201.031 126.08C201.415 125.728 201.738 125.363 201.999 124.984C202.266 124.6 202.399 124.224 202.399 123.856C202.399 123.509 202.314 123.237 202.143 123.04C201.978 122.837 201.709 122.736 201.335 122.736C200.973 122.736 200.69 122.851 200.487 123.08C200.29 123.304 200.183 123.605 200.167 123.984H199.463C199.485 123.387 199.666 122.925 200.007 122.6C200.349 122.275 200.789 122.112 201.327 122.112C201.877 122.112 202.311 122.264 202.631 122.568C202.957 122.872 203.119 123.291 203.119 123.824C203.119 124.267 202.986 124.699 202.719 125.12C202.458 125.536 202.159 125.904 201.823 126.224C201.487 126.539 201.058 126.907 200.535 127.328H203.287V127.936H199.439V127.416ZM203.969 123.52C203.969 123.157 204.078 122.869 204.297 122.656C204.515 122.437 204.795 122.328 205.137 122.328C205.478 122.328 205.758 122.437 205.977 122.656C206.195 122.869 206.305 123.157 206.305 123.52C206.305 123.888 206.195 124.181 205.977 124.4C205.758 124.613 205.478 124.72 205.137 124.72C204.795 124.72 204.515 124.613 204.297 124.4C204.078 124.181 203.969 123.888 203.969 123.52ZM208.641 122.416L205.401 128H204.681L207.921 122.416H208.641ZM205.137 122.776C204.955 122.776 204.811 122.84 204.705 122.968C204.603 123.091 204.553 123.275 204.553 123.52C204.553 123.765 204.603 123.952 204.705 124.08C204.811 124.208 204.955 124.272 205.137 124.272C205.318 124.272 205.462 124.208 205.569 124.08C205.675 123.947 205.729 123.76 205.729 123.52C205.729 123.275 205.675 123.091 205.569 122.968C205.462 122.84 205.318 122.776 205.137 122.776ZM207.033 126.896C207.033 126.528 207.142 126.237 207.361 126.024C207.579 125.805 207.859 125.696 208.201 125.696C208.542 125.696 208.819 125.805 209.033 126.024C209.251 126.237 209.361 126.528 209.361 126.896C209.361 127.259 209.251 127.549 209.033 127.768C208.819 127.987 208.542 128.096 208.201 128.096C207.859 128.096 207.579 127.989 207.361 127.776C207.142 127.557 207.033 127.264 207.033 126.896ZM208.193 126.152C208.011 126.152 207.867 126.216 207.761 126.344C207.654 126.467 207.601 126.651 207.601 126.896C207.601 127.136 207.654 127.32 207.761 127.448C207.867 127.571 208.011 127.632 208.193 127.632C208.374 127.632 208.518 127.571 208.625 127.448C208.731 127.32 208.785 127.136 208.785 126.896C208.785 126.651 208.731 126.467 208.625 126.344C208.518 126.216 208.374 126.152 208.193 126.152Z" fill="#FF0000"/>
<path d="M214.091 127.583V122.583" stroke="#FF0000" stroke-width="0.8" stroke-linecap="round" stroke-linejoin="round"/>
<path d="M216.1 125.567L214.092 127.584L212.083 125.567" stroke="#FF0000" stroke-width="0.8" stroke-linecap="round" stroke-linejoin="round"/>
<g filter="url(#filter3_d_430_433)">
<rect x="150" y="30" width="79" height="43" rx="8" fill="white"/>
</g>
<rect x="160" y="58" width="59" height="5" rx="2.5" fill="#F7F8F8"/>
<path d="M160 60.5C160 59.1193 161.119 58 162.5 58H202V63H162.5C161.119 63 160 61.8807 160 60.5Z" fill="url(#paint13_linear_430_433)"/>
<path d="M164.71 44.03V44.77H161.68V47.12H164.14V47.86H161.68V51H160.77V44.03H164.71ZM166.279 44.63C166.106 44.63 165.959 44.57 165.839 44.45C165.719 44.33 165.659 44.1833 165.659 44.01C165.659 43.8367 165.719 43.69 165.839 43.57C165.959 43.45 166.106 43.39 166.279 43.39C166.446 43.39 166.586 43.45 166.699 43.57C166.819 43.69 166.879 43.8367 166.879 44.01C166.879 44.1833 166.819 44.33 166.699 44.45C166.586 44.57 166.446 44.63 166.279 44.63ZM166.719 45.52V51H165.809V45.52H166.719ZM169.18 46.54C169.367 46.2133 169.64 45.9467 170 45.74C170.36 45.5333 170.77 45.43 171.23 45.43C171.723 45.43 172.167 45.5467 172.56 45.78C172.953 46.0133 173.263 46.3433 173.49 46.77C173.717 47.19 173.83 47.68 173.83 48.24C173.83 48.7933 173.717 49.2867 173.49 49.72C173.263 50.1533 172.95 50.49 172.55 50.73C172.157 50.97 171.717 51.09 171.23 51.09C170.757 51.09 170.34 50.9867 169.98 50.78C169.627 50.5733 169.36 50.31 169.18 49.99V51H168.27V43.6H169.18V46.54ZM172.9 48.24C172.9 47.8267 172.817 47.4667 172.65 47.16C172.483 46.8533 172.257 46.62 171.97 46.46C171.69 46.3 171.38 46.22 171.04 46.22C170.707 46.22 170.397 46.3033 170.11 46.47C169.83 46.63 169.603 46.8667 169.43 47.18C169.263 47.4867 169.18 47.8433 169.18 48.25C169.18 48.6633 169.263 49.0267 169.43 49.34C169.603 49.6467 169.83 49.8833 170.11 50.05C170.397 50.21 170.707 50.29 171.04 50.29C171.38 50.29 171.69 50.21 171.97 50.05C172.257 49.8833 172.483 49.6467 172.65 49.34C172.817 49.0267 172.9 48.66 172.9 48.24ZM175.938 46.41C176.098 46.0967 176.324 45.8533 176.618 45.68C176.918 45.5067 177.281 45.42 177.708 45.42V46.36H177.468C176.448 46.36 175.938 46.9133 175.938 48.02V51H175.028V45.52H175.938V46.41ZM183.758 48.05C183.758 48.2233 183.748 48.4067 183.728 48.6H179.348C179.382 49.14 179.565 49.5633 179.898 49.87C180.238 50.17 180.648 50.32 181.128 50.32C181.522 50.32 181.848 50.23 182.108 50.05C182.375 49.8633 182.562 49.6167 182.668 49.31H183.648C183.502 49.8367 183.208 50.2667 182.768 50.6C182.328 50.9267 181.782 51.09 181.128 51.09C180.608 51.09 180.142 50.9733 179.728 50.74C179.322 50.5067 179.002 50.1767 178.768 49.75C178.535 49.3167 178.418 48.8167 178.418 48.25C178.418 47.6833 178.532 47.1867 178.758 46.76C178.985 46.3333 179.302 46.0067 179.708 45.78C180.122 45.5467 180.595 45.43 181.128 45.43C181.648 45.43 182.108 45.5433 182.508 45.77C182.908 45.9967 183.215 46.31 183.428 46.71C183.648 47.1033 183.758 47.55 183.758 48.05ZM182.818 47.86C182.818 47.5133 182.742 47.2167 182.588 46.97C182.435 46.7167 182.225 46.5267 181.958 46.4C181.698 46.2667 181.408 46.2 181.088 46.2C180.628 46.2 180.235 46.3467 179.908 46.64C179.588 46.9333 179.405 47.34 179.358 47.86H182.818Z" fill="#7B6F72"/>
<path d="M190.552 47.992C190.253 47.8747 190.024 47.704 189.864 47.48C189.704 47.256 189.624 46.984 189.624 46.664C189.624 46.376 189.696 46.1173 189.84 45.888C189.984 45.6533 190.197 45.4693 190.48 45.336C190.768 45.1973 191.115 45.128 191.52 45.128C191.925 45.128 192.269 45.1973 192.552 45.336C192.84 45.4693 193.056 45.6533 193.2 45.888C193.349 46.1173 193.424 46.376 193.424 46.664C193.424 46.9733 193.341 47.2453 193.176 47.48C193.011 47.7093 192.784 47.88 192.496 47.992C192.827 48.0933 193.088 48.272 193.28 48.528C193.477 48.7787 193.576 49.0827 193.576 49.44C193.576 49.7867 193.491 50.0907 193.32 50.352C193.149 50.608 192.907 50.808 192.592 50.952C192.283 51.0907 191.925 51.16 191.52 51.16C191.115 51.16 190.757 51.0907 190.448 50.952C190.144 50.808 189.907 50.608 189.736 50.352C189.565 50.0907 189.48 49.7867 189.48 49.44C189.48 49.0827 189.576 48.776 189.768 48.52C189.96 48.264 190.221 48.088 190.552 47.992ZM192.72 46.752C192.72 46.4267 192.613 46.176 192.4 46C192.187 45.824 191.893 45.736 191.52 45.736C191.152 45.736 190.861 45.824 190.648 46C190.435 46.176 190.328 46.4293 190.328 46.76C190.328 47.0587 190.437 47.2987 190.656 47.48C190.88 47.6613 191.168 47.752 191.52 47.752C191.877 47.752 192.165 47.6613 192.384 47.48C192.608 47.2933 192.72 47.0507 192.72 46.752ZM191.52 48.312C191.125 48.312 190.803 48.4053 190.552 48.592C190.301 48.7733 190.176 49.048 190.176 49.416C190.176 49.7573 190.296 50.032 190.536 50.24C190.781 50.448 191.109 50.552 191.52 50.552C191.931 50.552 192.256 50.448 192.496 50.24C192.736 50.032 192.856 49.7573 192.856 49.416C192.856 49.0587 192.733 48.7867 192.488 48.6C192.243 48.408 191.92 48.312 191.52 48.312ZM195.599 47.992C195.3 47.8747 195.071 47.704 194.911 47.48C194.751 47.256 194.671 46.984 194.671 46.664C194.671 46.376 194.743 46.1173 194.887 45.888C195.031 45.6533 195.244 45.4693 195.527 45.336C195.815 45.1973 196.162 45.128 196.567 45.128C196.972 45.128 197.316 45.1973 197.599 45.336C197.887 45.4693 198.103 45.6533 198.247 45.888C198.396 46.1173 198.471 46.376 198.471 46.664C198.471 46.9733 198.388 47.2453 198.223 47.48C198.058 47.7093 197.831 47.88 197.543 47.992C197.874 48.0933 198.135 48.272 198.327 48.528C198.524 48.7787 198.623 49.0827 198.623 49.44C198.623 49.7867 198.538 50.0907 198.367 50.352C198.196 50.608 197.954 50.808 197.639 50.952C197.33 51.0907 196.972 51.16 196.567 51.16C196.162 51.16 195.804 51.0907 195.495 50.952C195.191 50.808 194.954 50.608 194.783 50.352C194.612 50.0907 194.527 49.7867 194.527 49.44C194.527 49.0827 194.623 48.776 194.815 48.52C195.007 48.264 195.268 48.088 195.599 47.992ZM197.767 46.752C197.767 46.4267 197.66 46.176 197.447 46C197.234 45.824 196.94 45.736 196.567 45.736C196.199 45.736 195.908 45.824 195.695 46C195.482 46.176 195.375 46.4293 195.375 46.76C195.375 47.0587 195.484 47.2987 195.703 47.48C195.927 47.6613 196.215 47.752 196.567 47.752C196.924 47.752 197.212 47.6613 197.431 47.48C197.655 47.2933 197.767 47.0507 197.767 46.752ZM196.567 48.312C196.172 48.312 195.85 48.4053 195.599 48.592C195.348 48.7733 195.223 49.048 195.223 49.416C195.223 49.7573 195.343 50.032 195.583 50.24C195.828 50.448 196.156 50.552 196.567 50.552C196.978 50.552 197.303 50.448 197.543 50.24C197.783 50.032 197.903 49.7573 197.903 49.416C197.903 49.0587 197.78 48.7867 197.535 48.6C197.29 48.408 196.967 48.312 196.567 48.312ZM199.43 46.52C199.43 46.1573 199.539 45.8693 199.758 45.656C199.976 45.4373 200.256 45.328 200.598 45.328C200.939 45.328 201.219 45.4373 201.438 45.656C201.656 45.8693 201.766 46.1573 201.766 46.52C201.766 46.888 201.656 47.1813 201.438 47.4C201.219 47.6133 200.939 47.72 200.598 47.72C200.256 47.72 199.976 47.6133 199.758 47.4C199.539 47.1813 199.43 46.888 199.43 46.52ZM204.102 45.416L200.862 51H200.142L203.382 45.416H204.102ZM200.598 45.776C200.416 45.776 200.272 45.84 200.166 45.968C200.064 46.0907 200.014 46.2747 200.014 46.52C200.014 46.7653 200.064 46.952 200.166 47.08C200.272 47.208 200.416 47.272 200.598 47.272C200.779 47.272 200.923 47.208 201.03 47.08C201.136 46.9467 201.19 46.76 201.19 46.52C201.19 46.2747 201.136 46.0907 201.03 45.968C200.923 45.84 200.779 45.776 200.598 45.776ZM202.494 49.896C202.494 49.528 202.603 49.2373 202.822 49.024C203.04 48.8053 203.32 48.696 203.662 48.696C204.003 48.696 204.28 48.8053 204.494 49.024C204.712 49.2373 204.822 49.528 204.822 49.896C204.822 50.2587 204.712 50.5493 204.494 50.768C204.28 50.9867 204.003 51.096 203.662 51.096C203.32 51.096 203.04 50.9893 202.822 50.776C202.603 50.5573 202.494 50.264 202.494 49.896ZM203.654 49.152C203.472 49.152 203.328 49.216 203.222 49.344C203.115 49.4667 203.062 49.6507 203.062 49.896C203.062 50.136 203.115 50.32 203.222 50.448C203.328 50.5707 203.472 50.632 203.654 50.632C203.835 50.632 203.979 50.5707 204.086 50.448C204.192 50.32 204.246 50.136 204.246 49.896C204.246 49.6507 204.192 49.4667 204.086 49.344C203.979 49.216 203.835 49.152 203.654 49.152Z" fill="#42D742"/>
<path d="M209.909 45.4165V50.4165" stroke="#42D742" stroke-width="0.8" stroke-linecap="round" stroke-linejoin="round"/>
<path d="M207.9 47.4331L209.908 45.4164L211.917 47.4331" stroke="#42D742" stroke-width="0.8" stroke-linecap="round" stroke-linejoin="round"/>
<defs>
<filter id="filter0_d_430_433" x="0" y="18" width="174" height="123" filterUnits="userSpaceOnUse" color-interpolation-filters="sRGB">
<feFlood flood-opacity="0" result="BackgroundImageFix"/>
<feColorMatrix in="SourceAlpha" type="matrix" values="0 0 0 0 0 0 0 0 0 0 0 0 0 0 0 0 0 0 127 0" result="hardAlpha"/>
<feOffset dy="10"/>
<feGaussianBlur stdDeviation="20"/>
<feColorMatrix type="matrix" values="0 0 0 0 0.113725 0 0 0 0 0.0862745 0 0 0 0 0.0901961 0 0 0 0.07 0"/>
<feBlend mode="normal" in2="BackgroundImageFix" result="effect1_dropShadow_430_433"/>
<feBlend mode="normal" in="SourceGraphic" in2="effect1_dropShadow_430_433" result="shape"/>
</filter>
<filter id="filter1_d_430_433" x="0" y="98" width="164" height="123" filterUnits="userSpaceOnUse" color-interpolation-filters="sRGB">
<feFlood flood-opacity="0" result="BackgroundImageFix"/>
<feColorMatrix in="SourceAlpha" type="matrix" values="0 0 0 0 0 0 0 0 0 0 0 0 0 0 0 0 0 0 127 0" result="hardAlpha"/>
<feOffset dy="10"/>
<feGaussianBlur stdDeviation="20"/>
<feColorMatrix type="matrix" values="0 0 0 0 0.113725 0 0 0 0 0.0862745 0 0 0 0 0.0901961 0 0 0 0.07 0"/>
<feBlend mode="normal" in2="BackgroundImageFix" result="effect1_dropShadow_430_433"/>
<feBlend mode="normal" in="SourceGraphic" in2="effect1_dropShadow_430_433" result="shape"/>
</filter>
<filter id="filter2_d_430_433" x="120" y="77" width="153" height="123" filterUnits="userSpaceOnUse" color-interpolation-filters="sRGB">
<feFlood flood-opacity="0" result="BackgroundImageFix"/>
<feColorMatrix in="SourceAlpha" type="matrix" values="0 0 0 0 0 0 0 0 0 0 0 0 0 0 0 0 0 0 127 0" result="hardAlpha"/>
<feOffset dy="10"/>
<feGaussianBlur stdDeviation="20"/>
<feColorMatrix type="matrix" values="0 0 0 0 0.113725 0 0 0 0 0.0862745 0 0 0 0 0.0901961 0 0 0 0.07 0"/>
<feBlend mode="normal" in2="BackgroundImageFix" result="effect1_dropShadow_430_433"/>
<feBlend mode="normal" in="SourceGraphic" in2="effect1_dropShadow_430_433" result="shape"/>
</filter>
<filter id="filter3_d_430_433" x="110" y="0" width="159" height="123" filterUnits="userSpaceOnUse" color-interpolation-filters="sRGB">
<feFlood flood-opacity="0" result="BackgroundImageFix"/>
<feColorMatrix in="SourceAlpha" type="matrix" values="0 0 0 0 0 0 0 0 0 0 0 0 0 0 0 0 0 0 127 0" result="hardAlpha"/>
<feOffset dy="10"/>
<feGaussianBlur stdDeviation="20"/>
<feColorMatrix type="matrix" values="0 0 0 0 0.113725 0 0 0 0 0.0862745 0 0 0 0 0.0901961 0 0 0 0.07 0"/>
<feBlend mode="normal" in2="BackgroundImageFix" result="effect1_dropShadow_430_433"/>
<feBlend mode="normal" in="SourceGraphic" in2="effect1_dropShadow_430_433" result="shape"/>
</filter>
<linearGradient id="paint0_linear_430_433" x1="328" y1="113" x2="297.539" y2="109.612" gradientUnits="userSpaceOnUse">
<stop stop-color="#C58BF2"/>
<stop offset="1" stop-color="#EEA4CE"/>
</linearGradient>
<linearGradient id="paint1_linear_430_433" x1="225" y1="214" x2="193.16" y2="210.715" gradientUnits="userSpaceOnUse">
<stop stop-color="#C58BF2"/>
<stop offset="1" stop-color="#EEA4CE"/>
</linearGradient>
<linearGradient id="paint2_linear_430_433" x1="301" y1="78" x2="-50.2952" y2="175.035" gradientUnits="userSpaceOnUse">
<stop stop-color="#92A3FD"/>
<stop offset="1" stop-color="#9DCEFF"/>
</linearGradient>
<linearGradient id="paint3_linear_430_433" x1="53" y1="125" x2="45.0032" y2="124.381" gradientUnits="userSpaceOnUse">
<stop stop-color="#92A3FD"/>
<stop offset="1" stop-color="#9DCEFF"/>
</linearGradient>
<linearGradient id="paint4_linear_430_433" x1="24" y1="101" x2="16.0032" y2="100.381" gradientUnits="userSpaceOnUse">
<stop stop-color="#92A3FD"/>
<stop offset="1" stop-color="#9DCEFF"/>
</linearGradient>
<linearGradient id="paint5_linear_430_433" x1="143" y1="141" x2="135.003" y2="140.381" gradientUnits="userSpaceOnUse">
<stop stop-color="#92A3FD"/>
<stop offset="1" stop-color="#9DCEFF"/>
</linearGradient>
<linearGradient id="paint6_linear_430_433" x1="303" y1="106" x2="295.003" y2="105.381" gradientUnits="userSpaceOnUse">
<stop stop-color="#92A3FD"/>
<stop offset="1" stop-color="#9DCEFF"/>
</linearGradient>
<linearGradient id="paint7_linear_430_433" x1="241" y1="160" x2="233.003" y2="159.381" gradientUnits="userSpaceOnUse">
<stop stop-color="#92A3FD"/>
<stop offset="1" stop-color="#9DCEFF"/>
</linearGradient>
<linearGradient id="paint8_linear_430_433" x1="195" y1="81" x2="187.003" y2="80.3812" gradientUnits="userSpaceOnUse">
<stop stop-color="#92A3FD"/>
<stop offset="1" stop-color="#9DCEFF"/>
</linearGradient>
<linearGradient id="paint9_linear_430_433" x1="103" y1="97" x2="95.0032" y2="96.3812" gradientUnits="userSpaceOnUse">
<stop stop-color="#92A3FD"/>
<stop offset="1" stop-color="#9DCEFF"/>
</linearGradient>
<linearGradient id="paint10_linear_430_433" x1="139.143" y1="78.5" x2="73.3556" y2="45.1296" gradientUnits="userSpaceOnUse">
<stop stop-color="#C58BF2"/>
<stop offset="1" stop-color="#92A3FD"/>
</linearGradient>
<linearGradient id="paint11_linear_430_433" x1="78.0635" y1="158.5" x2="52.6713" y2="154.445" gradientUnits="userSpaceOnUse">
<stop stop-color="#C58BF2"/>
<stop offset="1" stop-color="#92A3FD"/>
</linearGradient>
<linearGradient id="paint12_linear_430_433" x1="199.714" y1="137.5" x2="172.909" y2="132.968" gradientUnits="userSpaceOnUse">
<stop stop-color="#C58BF2"/>
<stop offset="1" stop-color="#92A3FD"/>
</linearGradient>
<linearGradient id="paint13_linear_430_433" x1="229.333" y1="60.5" x2="173.665" y2="38.5374" gradientUnits="userSpaceOnUse">
<stop stop-color="#C58BF2"/>
<stop offset="1" stop-color="#92A3FD"/>
</linearGradient>
</defs>
</svg>
